# xmcd
#
# Track frame offsets: 
#        150
#        14322
#        30984
#        44647
#        66103
#        96555
#        117636
#        133160
#        145030
#        159505
#        177906
#        191932
#        208089
#        223958
#        249276
#
# Disc length: 4154 seconds
#
# Revision: 0
# Processed by: cddbd v1.5.2PL0 Copyright (c) Steve Scherf et al.
# Submitted via: ExactAudioCopyFreeDBPlugin 1.0
#
DISCID=e810380f
DTITLE=Virgis Stakenas - COUNTRY'be
DYEAR=2003
DGENRE=Country
TTITLE0=Tumbalalaika
TTITLE1=Dalia
TTITLE2=Oru mergaite
TTITLE3=Bliuzas mamai
TTITLE4=Kolorado
TTITLE5=Kapitonas
TTITLE6=Mano ferma
TTITLE7=Syva kumela
TTITLE8=Darboholikas
TTITLE9=Letasis traukinys
TTITLE10=Nauji metai Janikunuose
TTITLE11=Akaciju aleja
TTITLE12=Kolorado (sokiu versija)
TTITLE13=Kelelis tolimas (sokiu versija)
TTITLE14=Scenos-vaizdo klipai
EXTD=
EXTT0=
EXTT1=
EXTT2=
EXTT3=
EXTT4=
EXTT5=
EXTT6=
EXTT7=
EXTT8=
EXTT9=
EXTT10=
EXTT11=
EXTT12=
EXTT13=
EXTT14=
PLAYORDER=
